# xmcd CD database file
#
# Track frame offsets:
#	150
#	19025
#	32825
#	45582
#	57977
#	76415
#	90470
#	111217
#	125445
#	139855
#	155210
#	170445
#	188502
#	211950
#	226585
#	239967
#	256625
#	274922
#	290967
#	315392
#
# Disc length: 4412 seconds
#
# Revision: 0
# Processed by: cddbd v1.5.2PL0 Copyright (c) Steve Scherf et al.
# Submitted via: CDex 1.70beta2
#
DISCID=19113a14
DTITLE=Stevie Wonder - Song Review - A Greatest Hits Collection - CD2
DYEAR=1900
DGENRE=Jazz
TTITLE0=Free
TTITLE1=Blowin' In The Wind
TTITLE2=A Place In The Sun
TTITLE3=I Don't Know Why
TTITLE4=Boogie On Reggae Woman
TTITLE5=Higher Ground
TTITLE6=I Ain't Gonna Stand For It
TTITLE7=Fingertips - Part 2
TTITLE8=Heaven Help Us All
TTITLE9=Pastime Paradise
TTITLE10=You Haven't Done Nothin'
TTITLE11=Send One Your Love
TTITLE12=That Girl
TTITLE13=We Can Work It Out
TTITLE14=If You Really Love Me
TTITLE15=Overjoyed
TTITLE16=For Your Love
TTITLE17=Stay Gold
TTITLE18=Another Star
TTITLE19=As
EXTD=
EXTT0=
EXTT1=
EXTT2=
EXTT3=
EXTT4=
EXTT5=
EXTT6=
EXTT7=
EXTT8=
EXTT9=
EXTT10=
EXTT11=
EXTT12=
EXTT13=
EXTT14=
EXTT15=
EXTT16=
EXTT17=
EXTT18=
EXTT19=
PLAYORDER=
